<?xml version="1.0" encoding="utf-8"?>
<!-- Generator: Adobe Illustrator 24.1.2, SVG Export Plug-In . SVG Version: 6.00 Build 0)  -->
<svg version="1.1" id="Capa_1" xmlns="http://www.w3.org/2000/svg" xmlns:xlink="http://www.w3.org/1999/xlink" x="0px" y="0px"
	 viewBox="0 0 45.5 130" style="enable-background:new 0 0 45.5 130;" xml:space="preserve">
<style type="text/css">
	.st0{fill:#FF4068;}
	.st1{fill:#601C70;}
</style>
<g id="Capa_2_1_">
	<g id="OBJECTS">
		<polygon class="st0" points="24.2,85.6 8.4,102.1 2.6,96.6 13.2,85.6 0,71.8 13.2,58 0,44.2 13.2,30.4 0,16.6 15.8,0 21.6,5.5 
			11.1,16.6 24.2,30.4 11.1,44.2 24.2,58 11.1,71.8 		"/>
		<polygon class="st1" points="45.5,113.4 29.7,130 23.9,124.4 34.5,113.4 21.3,99.6 34.5,85.8 21.3,72 34.5,58.2 21.3,44.4 
			37.1,27.8 42.9,33.4 32.3,44.4 45.5,58.2 32.3,72 45.5,85.8 32.3,99.6 		"/>
	</g>
</g>
</svg>
