<svg xmlns="http://www.w3.org/2000/svg" viewBox="0 0 45.51 129.98"><defs><style>.cls-1{fill:#f22579;}.cls-2{fill:#601c70;}</style></defs><g id="Capa_2" data-name="Capa 2"><g id="OBJECTS"><polygon class="cls-1" points="24.24 85.57 8.42 102.13 2.64 96.61 13.18 85.57 0 71.78 13.18 57.98 0 44.18 13.18 30.38 0 16.57 15.81 0 21.6 5.52 11.06 16.57 24.24 30.38 11.06 44.18 24.24 57.98 11.06 71.78 24.24 85.57"/><polygon class="cls-2" points="45.51 113.41 29.7 129.98 23.91 124.45 34.45 113.41 21.27 99.62 34.45 85.82 21.27 72.02 34.45 58.22 21.27 44.41 37.08 27.84 42.87 33.36 32.33 44.41 45.51 58.22 32.33 72.02 45.51 85.82 32.33 99.62 45.51 113.41"/></g></g></svg>